<?xml version="1.0" encoding="UTF-8" standalone="no"?>
<svg width="32px" height="32px" viewBox="0 0 40 40" 
version="1.1" xmlns="http://www.w3.org/2000/svg" xmlns:xlink="http://www.w3.org/1999/xlink"
>
  <title>reSsg</title>
  <desc>Created by rebenkoy@.</desc>
  <defs>
    <path id="letterBigS" d="M0,0 l10,10 l-10,10 l-10,-10 M0,0 l-10,-10 l10,-10 l10,10" />
    <path id="letterS" d="M0,0 l5,5 l-5,5 l-5,-5 M0,0 l-5,-5 l5,-5 l5,5" />
    <path id="letterG" d="M0,0 l5,0 l0,10 l-10,-10 l10,-10"/>
    <path id="letterE" d="M-10,0 l20,0 l-10,-10 l-10,10 l10,10 l5,-5"/>
    <path id="letterR" d="M-5,10 l0,-10 l10,0 l-10,-10 l0,10 l5,5"/>
  </defs>
  <g transform="translate(12,20)" stroke-width="2" stroke="#ffffff" fill="none" stroke-linejoin="round">
    <use href="#letterR" x="-5" y="0" />
    <use href="#letterE" x="0" y="10" />
    <use href="#letterBigS" x="0" y="0"/>
    <use href="#letterS" x="0" y="-10"/>
    <use href="#letterG" x="5" y="0" />
  </g>
</svg>